# This file uses centimeters as units for non-parametric coordinates.

mtllib Oil_Drum_Grey.mtl
g default
v -0.000005 1.346162 0.000000
v -0.000005 63.498157 0.000000
v 19.915936 63.499375 -5.336455
v 21.846947 64.261610 -5.853875
v 22.043717 63.596246 -5.906602
v 17.856148 63.499375 -10.309240
v 19.587431 64.261610 -11.308817
v 19.763878 63.596246 -11.410675
v 14.579485 63.499375 -14.579468
v 15.993080 64.261610 -15.993084
v 16.137130 63.596246 -16.137132
v 10.309240 63.499375 -17.856133
v 11.308825 64.261610 -19.587446
v 11.410672 63.596246 -19.763871
v 5.336485 63.499375 -19.915927
v 5.853883 64.261610 -21.846959
v 5.906614 63.596246 -22.043733
v -0.000005 63.499375 -20.618486
v -0.000005 64.261610 -22.617641
v -0.000005 63.596246 -22.821355
v -5.336457 63.499375 -19.915931
v -5.853861 64.261610 -21.846966
v -5.906603 63.596246 -22.043740
v -10.309251 63.499375 -17.856140
v -11.308813 64.261610 -19.587451
v -11.410655 63.596246 -19.763878
v -14.579462 63.499375 -14.579476
v -15.993091 64.261610 -15.993094
v -16.137141 63.596246 -16.137141
v -17.856142 63.499375 -10.309250
v -19.587442 64.261610 -11.308826
v -19.763882 63.596246 -11.410682
v -19.915942 63.499375 -5.336460
v -21.846959 64.261610 -5.853880
v -22.043729 63.596246 -5.906605
v -20.618479 63.499375 -0.000004
v -22.617650 64.261610 -0.000004
v -22.821355 63.596246 -0.000004
v -19.915942 63.499375 5.336456
v -21.846959 64.261610 5.853874
v -22.043729 63.596246 5.906600
v -17.856142 63.499375 10.309244
v -19.587442 64.261610 11.308814
v -19.763882 63.596246 11.410678
v -14.579462 63.499375 14.579474
v -15.993097 64.261610 15.993092
v -16.137147 63.596246 16.137136
v -10.309251 63.499375 17.856137
v -11.308813 64.261610 19.587454
v -11.410688 63.596246 19.763885
v -5.336463 63.499375 19.915931
v -5.853872 64.261610 21.846975
v -5.906603 63.596246 22.043752
v -0.000005 63.499375 20.618491
v -0.000005 64.261610 22.617638
v -0.000005 63.596246 22.821355
v 5.336485 63.499375 19.915931
v 5.853883 64.261610 21.846975
v 5.906614 63.596246 22.043752
v 10.309240 63.499375 17.856143
v 11.308825 64.261610 19.587458
v 11.410672 63.596246 19.763885
v 14.579485 63.499375 14.579474
v 15.993085 64.261610 15.993092
v 16.137136 63.596246 16.137136
v 17.856158 63.499375 10.309246
v 19.587442 64.261610 11.308820
v 19.763899 63.596246 11.410678
v 19.915936 63.499375 5.336456
v 21.846959 64.261610 5.853874
v 22.043729 63.596246 5.906600
v 20.618513 63.499375 0.000000
v 22.617659 64.261610 0.000000
v 22.821355 63.596246 0.000000
v 21.846947 0.000000 -5.853875
v 22.043717 0.632993 -5.906602
v 19.587442 0.000003 -11.308817
v 19.763878 0.632993 -11.410675
v 15.993080 0.000000 -15.993084
v 16.137130 0.632991 -16.137132
v 11.308825 0.000000 -19.587446
v 11.410672 0.632991 -19.763871
v 5.853894 0.000000 -21.846959
v 5.906614 0.632991 -22.043733
v -0.000005 0.000000 -22.617641
v -0.000005 0.632991 -22.821355
v -5.853872 -0.000003 -21.846966
v -5.906603 0.632986 -22.043740
v -11.308813 -0.000003 -19.587454
v -11.410655 0.632986 -19.763878
v -15.993091 -0.000003 -15.993094
v -16.137141 0.632986 -16.137141
v -19.587446 -0.000003 -11.308825
v -19.763882 0.632986 -11.410682
v -21.846959 -0.000003 -5.853879
v -22.043729 0.632986 -5.906605
v -22.617643 -0.000003 -0.000004
v -22.821355 0.632986 -0.000004
v -21.846959 -0.000003 5.853874
v -22.043729 0.632986 5.906600
v -19.587446 -0.000003 11.308820
v -19.763882 0.632986 11.410678
v -15.993097 -0.000003 15.993092
v -16.137147 0.632986 16.137136
v -11.308825 -0.000003 19.587458
v -11.410688 0.632986 19.763885
v -5.853872 -0.000003 21.846975
v -5.906603 0.632986 22.043752
v -0.000005 0.000000 22.617638
v -0.000005 0.632991 22.821355
v 5.853894 0.000000 21.846975
v 5.906614 0.632991 22.043752
v 11.308825 0.000000 19.587458
v 11.410672 0.632991 19.763885
v 15.993085 0.000000 15.993092
v 16.137136 0.632991 16.137136
v 19.587463 0.000000 11.308820
v 19.763899 0.632993 11.410678
v 21.846959 0.000000 5.853874
v 22.043729 0.632993 5.906600
v 22.617638 0.000003 0.000000
v 22.821355 0.632993 0.000000
v 21.572749 1.215989 -5.780405
v 19.341620 1.215989 -11.166884
v 19.341620 63.097042 -11.166884
v 21.572749 63.097042 -5.780405
v 15.792355 1.215984 -15.792358
v 15.792355 63.097042 -15.792358
v 11.166878 1.215984 -19.341609
v 11.166878 63.097042 -19.341609
v 5.780423 1.215984 -21.572761
v 5.780423 63.097042 -21.572761
v -0.000005 1.215984 -22.333772
v -0.000005 63.097042 -22.333772
v -5.780401 1.215984 -21.572768
v -5.780401 63.097042 -21.572768
v -11.166866 1.215979 -19.341616
v -11.166866 63.097042 -19.341616
v -15.792366 1.215979 -15.792366
v -15.792366 63.097042 -15.792366
v -19.341620 1.215979 -11.166891
v -19.341620 63.097042 -11.166891
v -21.572749 1.215979 -5.780409
v -21.572749 63.097042 -5.780409
v -22.333768 1.215979 -0.000004
v -22.333768 63.097042 -0.000004
v -21.572749 1.215979 5.780402
v -21.572749 63.097042 5.780402
v -19.341620 1.215979 11.166891
v -19.341620 63.097042 11.166891
v -15.792372 1.215979 15.792361
v -15.792372 63.097042 15.792361
v -11.166890 1.215979 19.341623
v -11.166890 63.097042 19.341623
v -5.780401 1.215984 21.572779
v -5.780401 63.097042 21.572779
v -0.000005 1.215984 22.333768
v -0.000005 63.097042 22.333768
v 5.780423 1.215984 21.572779
v 5.780423 63.097042 21.572779
v 11.166878 1.215984 19.341623
v 11.166878 63.097042 19.341623
v 15.792361 1.215984 15.792361
v 15.792361 63.097042 15.792361
v 19.341644 1.215989 11.166891
v 19.341644 63.097042 11.166891
v 21.572761 1.215989 5.780402
v 21.572761 63.097042 5.780402
v 22.333768 1.215989 0.000001
v 22.333768 63.097042 0.000001
v 17.777390 63.485344 -0.711676
v 17.294186 63.485344 -1.194880
v 16.634117 63.485344 -1.371746
v 15.974049 63.485344 -1.194880
v 15.490845 63.485344 -0.711676
v 15.313981 63.485344 -0.051606
v 15.490845 63.485344 0.608462
v 15.974049 63.485344 1.091668
v 16.634117 63.485344 1.268532
v 17.294186 63.485344 1.091668
v 17.777390 63.485344 0.608462
v 17.954254 63.485344 -0.051606
v 17.777390 64.153802 -0.711676
v 17.294186 64.153802 -1.194880
v 16.634117 64.153802 -1.371746
v 15.974049 64.153802 -1.194880
v 15.490845 64.153802 -0.711676
v 15.313981 64.153802 -0.051606
v 15.490845 64.153802 0.608462
v 15.974049 64.153802 1.091668
v 16.634117 64.153802 1.268532
v 17.294186 64.153802 1.091668
v 17.777390 64.153802 0.608462
v 17.954254 64.153802 -0.051606
v 16.634117 64.153802 -0.051606
v -11.102705 63.446498 -1.186880
v -11.663528 63.446498 -2.158257
v -12.522760 63.446498 -2.879237
v -13.576762 63.446498 -3.262866
v -14.698414 63.446498 -3.262866
v -15.752417 63.446498 -2.879240
v -16.611649 63.446498 -2.158257
v -17.172471 63.446498 -1.186883
v -17.367248 63.446498 -0.082276
v -17.172471 63.446498 1.022333
v -16.611649 63.446498 1.993707
v -15.752417 63.446498 2.714690
v -14.698414 63.446498 3.098316
v -13.576768 63.446498 3.098316
v -12.522760 63.446498 2.714690
v -11.663528 63.446498 1.993707
v -11.102705 63.446498 1.022333
v -10.907934 63.446498 -0.082274
v -11.102705 65.181944 -1.186880
v -11.663528 65.181944 -2.158257
v -12.522760 65.181944 -2.879237
v -13.576762 65.181944 -3.262866
v -14.698414 65.181944 -3.262866
v -15.752417 65.181944 -2.879240
v -16.611649 65.181944 -2.158257
v -17.172471 65.181944 -1.186883
v -17.367248 65.181944 -0.082276
v -17.172471 65.181944 1.022333
v -16.611649 65.181944 1.993707
v -15.752417 65.181944 2.714690
v -14.698414 65.181944 3.098316
v -13.576768 65.181944 3.098316
v -12.522760 65.181944 2.714690
v -11.663528 65.181944 1.993707
v -11.102705 65.181944 1.022333
v -10.907934 65.181944 -0.082274
v -14.137592 64.483273 -0.082274
vt 0.066485 0.951809
vt 0.066539 0.912203
vt 0.485790 0.912205
vt 0.485843 0.951811
vt 0.066626 0.872656
vt 0.485704 0.872658
vt 0.066716 0.833086
vt 0.485612 0.833087
vt 0.066795 0.793598
vt 0.485535 0.793598
vt 0.066939 0.754124
vt 0.485391 0.754125
vt 0.067039 0.714680
vt 0.485291 0.714680
vt 0.067154 0.675304
vt 0.485176 0.675305
vt 0.067326 0.635897
vt 0.485003 0.635896
vt 0.067339 0.596548
vt 0.484991 0.596548
vt 0.067345 0.557247
vt 0.484984 0.557247
vt 0.067332 0.517920
vt 0.484997 0.517918
vt 0.067302 0.478636
vt 0.485026 0.478635
vt 0.067332 0.439353
vt 0.484996 0.439352
vt 0.067345 0.400025
vt 0.484984 0.400024
vt 0.067338 0.360723
vt 0.484990 0.360723
vt 0.067325 0.321375
vt 0.485003 0.321373
vt 0.067154 0.281967
vt 0.485175 0.281968
vt 0.067037 0.242592
vt 0.485290 0.242592
vt 0.066939 0.203145
vt 0.485390 0.203146
vt 0.066794 0.163673
vt 0.485534 0.163673
vt 0.066716 0.124185
vt 0.485612 0.124186
vt 0.066626 0.084613
vt 0.485704 0.084614
vt 0.066539 0.045067
vt 0.485790 0.045068
vt 0.066486 0.005461
vt 0.485844 0.005463
vt 0.838818 0.397084
vt 0.768407 0.264524
vt 0.805324 0.249232
vt 0.844940 0.244017
vt 0.712380 0.320550
vt 0.736705 0.288849
vt 0.691873 0.397084
vt 0.697089 0.357467
vt 0.712380 0.473618
vt 0.697089 0.436701
vt 0.768407 0.529644
vt 0.736705 0.505319
vt 0.844940 0.550152
vt 0.805324 0.544936
vt 0.921474 0.529645
vt 0.884557 0.544936
vt 0.977501 0.473618
vt 0.953176 0.505319
vt 0.998008 0.397084
vt 0.992792 0.436701
vt 0.977501 0.320550
vt 0.992793 0.357467
vt 0.921474 0.264524
vt 0.953176 0.288849
vt 0.884557 0.249232
vt 0.646383 0.158278
vt 0.716510 0.036815
vt 0.745557 0.059104
vt 0.767846 0.088152
vt 0.781858 0.121978
vt 0.786637 0.158278
vt 0.781858 0.194579
vt 0.767846 0.228405
vt 0.745557 0.257452
vt 0.716510 0.279741
vt 0.682684 0.293753
vt 0.646383 0.298532
vt 0.610083 0.293753
vt 0.576257 0.279741
vt 0.547209 0.257452
vt 0.524920 0.228405
vt 0.510909 0.194579
vt 0.506130 0.158278
vt 0.510909 0.121978
vt 0.524920 0.088152
vt 0.547209 0.059104
vt 0.576257 0.036815
vt 0.610083 0.022804
vt 0.646383 0.018025
vt 0.682684 0.022804
vt 0.003507 0.208781
vt 0.008104 0.208774
vt 0.008133 0.247940
vt 0.003542 0.247942
vt 0.686203 0.009669
vt 0.646383 0.004426
vt 0.723309 0.025039
vt 0.003487 0.169606
vt 0.008093 0.169567
vt 0.755173 0.049489
vt 0.002720 0.130182
vt 0.007430 0.130100
vt 0.779623 0.081352
vt 0.001992 0.089284
vt 0.006893 0.089275
vt 0.794993 0.118459
vt 0.002438 0.046474
vt 0.007544 0.046678
vt 0.800235 0.158278
vt 0.005377 0.002022
vt 0.010552 0.002569
vt 0.794993 0.198098
vt 0.010512 0.963366
vt 0.005376 0.963912
vt 0.002401 0.919784
vt 0.007544 0.919583
vt 0.779623 0.235204
vt 0.002003 0.875994
vt 0.007045 0.876018
vt 0.755173 0.267068
vt 0.002915 0.833639
vt 0.007719 0.833733
vt 0.723309 0.291518
vt 0.003750 0.794021
vt 0.008314 0.794076
vt 0.686203 0.306888
vt 0.003975 0.755787
vt 0.008418 0.755776
vt 0.646383 0.312131
vt 0.003588 0.718217
vt 0.008074 0.718184
vt 0.606563 0.306888
vt 0.003382 0.679251
vt 0.007971 0.679242
vt 0.569457 0.291518
vt 0.003365 0.639906
vt 0.008006 0.639920
vt 0.537593 0.267068
vt 0.003650 0.600070
vt 0.008251 0.600078
vt 0.513143 0.235204
vt 0.003479 0.561390
vt 0.008049 0.561381
vt 0.497774 0.198098
vt 0.003514 0.522100
vt 0.008112 0.522104
vt 0.492531 0.158278
vt 0.003514 0.482943
vt 0.008105 0.482943
vt 0.497774 0.118459
vt 0.003515 0.443776
vt 0.008105 0.443776
vt 0.513143 0.081352
vt 0.003508 0.404616
vt 0.008099 0.404616
vt 0.537593 0.049489
vt 0.003510 0.365449
vt 0.008101 0.365450
vt 0.569457 0.025039
vt 0.003531 0.326268
vt 0.008124 0.326271
vt 0.606563 0.009669
vt 0.003552 0.287097
vt 0.008143 0.287097
vt 0.022709 0.210799
vt 0.018383 0.210798
vt 0.018488 0.172712
vt 0.022806 0.172751
vt 0.022709 0.250002
vt 0.018320 0.249998
vt 0.018949 0.133663
vt 0.023457 0.133733
vt 0.019428 0.092233
vt 0.024203 0.092242
vt 0.018827 0.048609
vt 0.023742 0.048403
vt 0.015682 0.004869
vt 0.020587 0.004319
vt 0.020593 0.966106
vt 0.015672 0.965555
vt 0.018838 0.921678
vt 0.023732 0.921885
vt 0.019477 0.878563
vt 0.024250 0.878553
vt 0.018866 0.836657
vt 0.023435 0.836572
vt 0.018225 0.797020
vt 0.022616 0.796959
vt 0.017951 0.758200
vt 0.022237 0.758196
vt 0.018242 0.720420
vt 0.022532 0.720449
vt 0.018405 0.681602
vt 0.022775 0.681618
vt 0.018449 0.642427
vt 0.022876 0.642419
vt 0.018213 0.602614
vt 0.022629 0.602601
vt 0.018284 0.563562
vt 0.022662 0.563567
vt 0.018329 0.524464
vt 0.022719 0.524465
vt 0.018300 0.485207
vt 0.022694 0.485206
vt 0.018305 0.446011
vt 0.022696 0.446011
vt 0.018311 0.406815
vt 0.022703 0.406815
vt 0.018303 0.367607
vt 0.022697 0.367606
vt 0.018289 0.328393
vt 0.022681 0.328392
vt 0.018287 0.289188
vt 0.022678 0.289189
vt 0.050740 0.210798
vt 0.049835 0.172257
vt 0.054798 0.172100
vt 0.055739 0.210799
vt 0.039314 0.168028
vt 0.039217 0.207124
vt 0.034618 0.207119
vt 0.034684 0.168014
vt 0.048222 0.133607
vt 0.053368 0.133424
vt 0.040787 0.128891
vt 0.036082 0.128703
vt 0.046970 0.092139
vt 0.052390 0.092194
vt 0.042518 0.088203
vt 0.037604 0.088167
vt 0.048973 0.049175
vt 0.054522 0.049794
vt 0.041434 0.045461
vt 0.036355 0.045940
vt 0.056615 0.005574
vt 0.062097 0.007019
vt 0.034391 0.001928
vt 0.029387 0.003219
vt 0.056653 0.960643
vt 0.048896 0.917539
vt 0.054438 0.916915
vt 0.062069 0.959192
vt 0.041435 0.913056
vt 0.034446 0.957288
vt 0.029353 0.955996
vt 0.036249 0.912585
vt 0.046942 0.874193
vt 0.052434 0.874160
vt 0.042401 0.869198
vt 0.037385 0.869240
vt 0.048446 0.831954
vt 0.053731 0.832190
vt 0.040704 0.827899
vt 0.035953 0.828102
vt 0.050687 0.791917
vt 0.055717 0.792130
vt 0.038879 0.788569
vt 0.034348 0.788697
vt 0.051843 0.753689
vt 0.056709 0.753740
vt 0.038562 0.751008
vt 0.034099 0.751002
vt 0.051515 0.716208
vt 0.056349 0.716119
vt 0.038911 0.712891
vt 0.034406 0.712830
vt 0.050427 0.678448
vt 0.055379 0.678373
vt 0.039648 0.674562
vt 0.035062 0.674531
vt 0.050363 0.639162
vt 0.055404 0.639176
vt 0.039390 0.635136
vt 0.034772 0.635157
vt 0.050597 0.599939
vt 0.055636 0.599981
vt 0.039361 0.596194
vt 0.034760 0.596210
vt 0.051042 0.560755
vt 0.056036 0.560759
vt 0.039109 0.557139
vt 0.034524 0.557140
vt 0.050630 0.522179
vt 0.055617 0.522157
vt 0.039376 0.518388
vt 0.034791 0.518378
vt 0.050732 0.483172
vt 0.055736 0.483180
vt 0.039271 0.479403
vt 0.034680 0.479409
vt 0.050742 0.444262
vt 0.055742 0.444262
vt 0.039291 0.440488
vt 0.034702 0.440487
vt 0.050736 0.405355
vt 0.055735 0.405355
vt 0.039302 0.401559
vt 0.034710 0.401558
vt 0.050737 0.366443
vt 0.055738 0.366443
vt 0.039305 0.362630
vt 0.034714 0.362631
vt 0.050737 0.327531
vt 0.055737 0.327531
vt 0.039279 0.323730
vt 0.034694 0.323735
vt 0.050738 0.288620
vt 0.055738 0.288620
vt 0.039236 0.284869
vt 0.034653 0.284874
vt 0.050738 0.249708
vt 0.055738 0.249708
vt 0.039198 0.246029
vt 0.034615 0.246031
vt 0.593118 0.641790
vt 0.593118 0.620777
vt 0.608000 0.620777
vt 0.608000 0.641790
vt 0.593118 0.599764
vt 0.608000 0.599764
vt 0.593118 0.578751
vt 0.608000 0.578751
vt 0.593118 0.557737
vt 0.608000 0.557737
vt 0.593118 0.536724
vt 0.608000 0.536724
vt 0.593118 0.515711
vt 0.608000 0.515711
vt 0.593118 0.494698
vt 0.608000 0.494698
vt 0.593118 0.473684
vt 0.608000 0.473684
vt 0.593118 0.452671
vt 0.608000 0.452671
vt 0.593118 0.431657
vt 0.608000 0.431657
vt 0.593118 0.410644
vt 0.608000 0.410644
vt 0.593118 0.389631
vt 0.608000 0.389631
vt 0.862124 0.665678
vt 0.892037 0.684331
vt 0.879395 0.696974
vt 0.862124 0.701602
vt 0.844853 0.696974
vt 0.832209 0.684331
vt 0.827582 0.667060
vt 0.832209 0.649789
vt 0.844853 0.637146
vt 0.862124 0.632518
vt 0.879395 0.637146
vt 0.892037 0.649789
vt 0.896665 0.667060
vt 0.530552 0.978320
vt 0.529250 0.944927
vt 0.573349 0.944967
vt 0.572047 0.978281
vt 0.529102 0.909538
vt 0.573496 0.909535
vt 0.529108 0.873864
vt 0.573490 0.873864
vt 0.529108 0.838203
vt 0.573490 0.838203
vt 0.529108 0.802541
vt 0.573490 0.802541
vt 0.529108 0.766880
vt 0.573490 0.766880
vt 0.529108 0.731218
vt 0.573490 0.731218
vt 0.529108 0.695556
vt 0.573490 0.695556
vt 0.529108 0.659895
vt 0.573490 0.659895
vt 0.529108 0.624234
vt 0.573490 0.624234
vt 0.529108 0.588573
vt 0.573490 0.588573
vt 0.529108 0.552911
vt 0.573490 0.552911
vt 0.529108 0.517250
vt 0.573490 0.517250
vt 0.529108 0.481589
vt 0.573490 0.481589
vt 0.529108 0.445927
vt 0.573490 0.445927
vt 0.529102 0.410256
vt 0.573497 0.410254
vt 0.529250 0.374825
vt 0.573349 0.374866
vt 0.530552 0.341511
vt 0.572047 0.341472
vt 0.715120 0.639789
vt 0.770067 0.574305
vt 0.789150 0.597047
vt 0.799305 0.624945
vt 0.799305 0.654633
vt 0.789150 0.682531
vt 0.770067 0.705273
vt 0.744358 0.720117
vt 0.715121 0.725272
vt 0.685882 0.720117
vt 0.660173 0.705273
vt 0.641089 0.682531
vt 0.630935 0.654633
vt 0.630935 0.624945
vt 0.641089 0.597047
vt 0.660173 0.574305
vt 0.685883 0.559461
vt 0.715120 0.554306
vt 0.744358 0.559461
vn 0.965926 0.000000 -0.258818
vn 0.866026 0.000000 -0.499999
vn 0.866026 0.000000 -0.500000
vn 0.965926 0.000000 -0.258818
vn 0.866026 0.000000 -0.499999
vn 0.707106 0.000000 -0.707108
vn 0.707106 0.000000 -0.707107
vn 0.866026 0.000000 -0.500000
vn 0.707106 0.000000 -0.707108
vn 0.500001 0.000000 -0.866025
vn 0.500001 0.000000 -0.866025
vn 0.707106 0.000000 -0.707107
vn 0.500001 0.000000 -0.866025
vn 0.258820 0.000000 -0.965926
vn 0.258820 0.000000 -0.965926
vn 0.500001 0.000000 -0.866025
vn 0.258820 0.000000 -0.965926
vn 0.000001 0.000000 -1.000000
vn 0.000001 0.000000 -1.000000
vn 0.258820 0.000000 -0.965926
vn 0.000001 0.000000 -1.000000
vn -0.258820 0.000000 -0.965926
vn -0.258820 0.000000 -0.965926
vn 0.000001 0.000000 -1.000000
vn -0.258820 0.000000 -0.965926
vn -0.499999 0.000000 -0.866026
vn -0.499999 0.000000 -0.866026
vn -0.258820 0.000000 -0.965926
vn -0.499999 0.000000 -0.866026
vn -0.707106 0.000000 -0.707108
vn -0.707106 0.000000 -0.707108
vn -0.499999 0.000000 -0.866026
vn -0.707106 0.000000 -0.707108
vn -0.866026 0.000000 -0.499999
vn -0.866026 0.000000 -0.499999
vn -0.707106 0.000000 -0.707108
vn -0.866026 0.000000 -0.499999
vn -0.965926 0.000000 -0.258818
vn -0.965926 0.000000 -0.258818
vn -0.866026 0.000000 -0.499999
vn -0.965926 0.000000 -0.258818
vn -1.000000 0.000000 0.000000
vn -1.000000 0.000000 0.000000
vn -0.965926 0.000000 -0.258818
vn -1.000000 0.000000 0.000000
vn -0.965926 0.000000 0.258818
vn -0.965926 0.000000 0.258818
vn -1.000000 0.000000 0.000000
vn -0.965926 0.000000 0.258818
vn -0.866027 0.000000 0.499998
vn -0.866027 0.000000 0.499998
vn -0.965926 0.000000 0.258818
vn -0.866027 0.000000 0.499998
vn -0.707107 0.000000 0.707107
vn -0.707107 0.000000 0.707107
vn -0.866027 0.000000 0.499998
vn -0.707107 0.000000 0.707107
vn -0.500000 0.000000 0.866025
vn -0.500000 0.000000 0.866025
vn -0.707107 0.000000 0.707107
vn -0.500000 0.000000 0.866025
vn -0.258818 0.000000 0.965926
vn -0.258818 0.000000 0.965926
vn -0.500000 0.000000 0.866025
vn -0.258818 0.000000 0.965926
vn -0.000000 0.000000 1.000000
vn -0.000000 0.000000 1.000000
vn -0.258818 0.000000 0.965926
vn -0.000000 0.000000 1.000000
vn 0.258818 0.000000 0.965926
vn 0.258818 0.000000 0.965926
vn -0.000000 0.000000 1.000000
vn 0.258818 0.000000 0.965926
vn 0.500002 0.000000 0.866025
vn 0.500002 0.000000 0.866025
vn 0.258818 0.000000 0.965926
vn 0.500002 0.000000 0.866025
vn 0.707105 0.000000 0.707108
vn 0.707105 0.000000 0.707108
vn 0.500002 0.000000 0.866025
vn 0.707105 0.000000 0.707108
vn 0.866026 0.000000 0.500000
vn 0.866026 0.000000 0.500000
vn 0.707105 0.000000 0.707108
vn 0.866026 0.000000 0.500000
vn 0.965927 0.000000 0.258816
vn 0.965927 0.000000 0.258816
vn 0.866026 0.000000 0.500000
vn 0.965927 0.000000 0.258816
vn 1.000000 0.000000 -0.000001
vn 1.000000 0.000000 -0.000001
vn 0.965927 0.000000 0.258816
vn 1.000000 0.000000 -0.000001
vn 0.965926 0.000000 -0.258818
vn 0.965926 0.000000 -0.258818
vn 1.000000 0.000000 -0.000001
vn 0.000000 -1.000000 -0.000000
vn -0.022323 -0.999668 0.012888
vn -0.026831 -0.999614 0.007189
vn -0.025776 -0.999668 -0.000000
vn 0.000000 -1.000000 -0.000000
vn -0.012888 -0.999668 0.022323
vn -0.019641 -0.999614 0.019641
vn -0.022323 -0.999668 0.012888
vn 0.000000 -1.000000 -0.000000
vn 0.000000 -0.999668 0.025777
vn -0.007189 -0.999614 0.026831
vn -0.012888 -0.999668 0.022323
vn 0.000000 -1.000000 -0.000000
vn 0.012888 -0.999668 0.022323
vn 0.007190 -0.999614 0.026831
vn 0.000000 -0.999668 0.025777
vn 0.000000 -1.000000 -0.000000
vn 0.022323 -0.999668 0.012888
vn 0.019641 -0.999614 0.019641
vn 0.012888 -0.999668 0.022323
vn 0.000000 -1.000000 -0.000000
vn 0.025777 -0.999668 0.000000
vn 0.026831 -0.999614 0.007189
vn 0.022323 -0.999668 0.012888
vn 0.000000 -1.000000 -0.000000
vn 0.022323 -0.999668 -0.012888
vn 0.026831 -0.999614 -0.007189
vn 0.025777 -0.999668 0.000000
vn 0.000000 -1.000000 -0.000000
vn 0.012888 -0.999668 -0.022323
vn 0.019641 -0.999614 -0.019641
vn 0.022323 -0.999668 -0.012888
vn 0.000000 -1.000000 -0.000000
vn 0.000000 -0.999668 -0.025777
vn 0.007189 -0.999614 -0.026831
vn 0.012888 -0.999668 -0.022323
vn 0.000000 -1.000000 -0.000000
vn -0.012888 -0.999668 -0.022323
vn -0.007189 -0.999614 -0.026830
vn 0.000000 -0.999668 -0.025777
vn 0.000000 -1.000000 -0.000000
vn -0.022323 -0.999668 -0.012888
vn -0.019641 -0.999614 -0.019641
vn -0.012888 -0.999668 -0.022323
vn 0.000000 -1.000000 -0.000000
vn -0.025776 -0.999668 -0.000000
vn -0.026830 -0.999614 -0.007189
vn -0.022323 -0.999668 -0.012888
vn 0.000000 1.000000 0.000000
vn -0.035270 0.999170 0.020364
vn -0.028799 0.999170 0.028800
vn -0.020363 0.999170 0.035270
vn 0.000000 1.000000 0.000000
vn -0.020363 0.999170 0.035270
vn -0.010541 0.999170 0.039341
vn -0.000000 0.999170 0.040727
vn 0.000000 1.000000 0.000000
vn -0.000000 0.999170 0.040727
vn 0.010541 0.999170 0.039341
vn 0.020363 0.999170 0.035271
vn 0.000000 1.000000 0.000000
vn 0.020363 0.999170 0.035271
vn 0.028799 0.999170 0.028800
vn 0.035270 0.999170 0.020363
vn 0.000000 1.000000 0.000000
vn 0.035270 0.999170 0.020363
vn 0.039341 0.999170 0.010541
vn 0.040727 0.999170 0.000000
vn 0.000000 1.000000 0.000000
vn 0.040727 0.999170 0.000000
vn 0.039341 0.999170 -0.010541
vn 0.035270 0.999170 -0.020363
vn 0.000000 1.000000 0.000000
vn 0.035270 0.999170 -0.020363
vn 0.028799 0.999170 -0.028800
vn 0.020363 0.999170 -0.035270
vn 0.000000 1.000000 0.000000
vn 0.020363 0.999170 -0.035270
vn 0.010541 0.999170 -0.039341
vn -0.000000 0.999170 -0.040727
vn 0.000000 1.000000 0.000000
vn -0.000000 0.999170 -0.040727
vn -0.010541 0.999170 -0.039341
vn -0.020363 0.999170 -0.035271
vn 0.000000 1.000000 0.000000
vn -0.020363 0.999170 -0.035271
vn -0.028799 0.999170 -0.028800
vn -0.035271 0.999170 -0.020364
vn 0.000000 1.000000 0.000000
vn -0.035271 0.999170 -0.020364
vn -0.039341 0.999170 -0.010542
vn -0.040727 0.999170 0.000000
vn 0.000000 1.000000 0.000000
vn -0.040727 0.999170 0.000000
vn -0.039341 0.999170 0.010542
vn -0.035270 0.999170 0.020364
vn 0.941194 -0.224838 -0.252193
vn 0.006261 0.999979 -0.001678
vn 0.006484 0.999979 -0.000000
vn 0.974394 -0.224847 -0.000001
vn 0.006261 0.999979 -0.001678
vn -0.039341 0.999170 0.010542
vn -0.040727 0.999170 0.000000
vn 0.006484 0.999979 -0.000000
vn -0.039341 0.999170 0.010542
vn 0.006261 0.999979 -0.001678
vn 0.005614 0.999979 -0.003242
vn -0.035270 0.999170 0.020364
vn 0.006261 0.999979 -0.001678
vn 0.941194 -0.224838 -0.252193
vn 0.843855 -0.224828 -0.487197
vn 0.005614 0.999979 -0.003242
vn -0.035270 0.999170 0.020364
vn 0.005614 0.999979 -0.003242
vn 0.004584 0.999979 -0.004583
vn -0.028799 0.999170 0.028800
vn 0.005614 0.999979 -0.003242
vn 0.843855 -0.224828 -0.487197
vn 0.689003 -0.224835 -0.689002
vn 0.004584 0.999979 -0.004583
vn -0.028799 0.999170 0.028800
vn 0.004584 0.999979 -0.004583
vn 0.003242 0.999979 -0.005613
vn -0.020363 0.999170 0.035270
vn 0.004584 0.999979 -0.004583
vn 0.689003 -0.224835 -0.689002
vn 0.487198 -0.224839 -0.843852
vn 0.003242 0.999979 -0.005613
vn -0.020363 0.999170 0.035270
vn 0.003242 0.999979 -0.005613
vn 0.001678 0.999979 -0.006263
vn -0.010541 0.999170 0.039341
vn 0.003242 0.999979 -0.005613
vn 0.487198 -0.224839 -0.843852
vn 0.252192 -0.224837 -0.941195
vn 0.001678 0.999979 -0.006263
vn -0.010541 0.999170 0.039341
vn 0.001678 0.999979 -0.006263
vn 0.000000 0.999979 -0.006484
vn -0.000000 0.999170 0.040727
vn 0.001678 0.999979 -0.006263
vn 0.252192 -0.224837 -0.941195
vn 0.000001 -0.224837 -0.974397
vn 0.000000 0.999979 -0.006484
vn -0.000000 0.999170 0.040727
vn 0.000000 0.999979 -0.006484
vn -0.001678 0.999979 -0.006261
vn 0.010541 0.999170 0.039341
vn 0.000000 0.999979 -0.006484
vn 0.000001 -0.224837 -0.974397
vn -0.252194 -0.224836 -0.941195
vn -0.001678 0.999979 -0.006261
vn 0.010541 0.999170 0.039341
vn -0.001678 0.999979 -0.006261
vn -0.003242 0.999979 -0.005614
vn 0.020363 0.999170 0.035271
vn -0.001678 0.999979 -0.006261
vn -0.252194 -0.224836 -0.941195
vn -0.487196 -0.224838 -0.843853
vn -0.003242 0.999979 -0.005614
vn 0.020363 0.999170 0.035271
vn -0.003242 0.999979 -0.005614
vn -0.004584 0.999979 -0.004585
vn 0.028799 0.999170 0.028800
vn -0.003242 0.999979 -0.005614
vn -0.487196 -0.224838 -0.843853
vn -0.689001 -0.224836 -0.689004
vn -0.004584 0.999979 -0.004585
vn 0.028799 0.999170 0.028800
vn -0.004584 0.999979 -0.004585
vn -0.005614 0.999979 -0.003241
vn 0.035270 0.999170 0.020363
vn -0.004584 0.999979 -0.004585
vn -0.689001 -0.224836 -0.689004
vn -0.843854 -0.224835 -0.487196
vn -0.005614 0.999979 -0.003241
vn 0.035270 0.999170 0.020363
vn -0.005614 0.999979 -0.003241
vn -0.006262 0.999979 -0.001678
vn 0.039341 0.999170 0.010541
vn -0.005614 0.999979 -0.003241
vn -0.843854 -0.224835 -0.487196
vn -0.941194 -0.224841 -0.252191
vn -0.006262 0.999979 -0.001678
vn 0.039341 0.999170 0.010541
vn -0.006262 0.999979 -0.001678
vn -0.006483 0.999979 0.000000
vn 0.040727 0.999170 0.000000
vn -0.006262 0.999979 -0.001678
vn -0.941194 -0.224841 -0.252191
vn -0.974394 -0.224848 0.000000
vn -0.006483 0.999979 0.000000
vn 0.040727 0.999170 0.000000
vn -0.006483 0.999979 0.000000
vn -0.006262 0.999979 0.001678
vn 0.039341 0.999170 -0.010541
vn -0.006483 0.999979 0.000000
vn -0.974394 -0.224848 0.000000
vn -0.941194 -0.224841 0.252191
vn -0.006262 0.999979 0.001678
vn 0.039341 0.999170 -0.010541
vn -0.006262 0.999979 0.001678
vn -0.005614 0.999979 0.003240
vn 0.035270 0.999170 -0.020363
vn -0.006262 0.999979 0.001678
vn -0.941194 -0.224841 0.252191
vn -0.843855 -0.224832 0.487195
vn -0.005614 0.999979 0.003240
vn 0.035270 0.999170 -0.020363
vn -0.005614 0.999979 0.003240
vn -0.004585 0.999979 0.004584
vn 0.028799 0.999170 -0.028800
vn -0.005614 0.999979 0.003240
vn -0.843855 -0.224832 0.487195
vn -0.689005 -0.224831 0.689002
vn -0.004585 0.999979 0.004584
vn 0.028799 0.999170 -0.028800
vn -0.004585 0.999979 0.004584
vn -0.003242 0.999979 0.005614
vn 0.020363 0.999170 -0.035270
vn -0.004585 0.999979 0.004584
vn -0.689005 -0.224831 0.689002
vn -0.487200 -0.224833 0.843852
vn -0.003242 0.999979 0.005614
vn 0.020363 0.999170 -0.035270
vn -0.003242 0.999979 0.005614
vn -0.001678 0.999979 0.006263
vn 0.010541 0.999170 -0.039341
vn -0.003242 0.999979 0.005614
vn -0.487200 -0.224833 0.843852
vn -0.252192 -0.224835 0.941195
vn -0.001678 0.999979 0.006263
vn 0.010541 0.999170 -0.039341
vn -0.001678 0.999979 0.006263
vn -0.000000 0.999979 0.006483
vn -0.000000 0.999170 -0.040727
vn -0.001678 0.999979 0.006263
vn -0.252192 -0.224835 0.941195
vn -0.000000 -0.224838 0.974396
vn -0.000000 0.999979 0.006483
vn -0.000000 0.999170 -0.040727
vn -0.000000 0.999979 0.006483
vn 0.001678 0.999979 0.006262
vn -0.010541 0.999170 -0.039341
vn -0.000000 0.999979 0.006483
vn -0.000000 -0.224838 0.974396
vn 0.252191 -0.224837 0.941195
vn 0.001678 0.999979 0.006262
vn -0.010541 0.999170 -0.039341
vn 0.001678 0.999979 0.006262
vn 0.003242 0.999979 0.005615
vn -0.020363 0.999170 -0.035271
vn 0.001678 0.999979 0.006262
vn 0.252191 -0.224837 0.941195
vn 0.487198 -0.224838 0.843852
vn 0.003242 0.999979 0.005615
vn -0.020363 0.999170 -0.035271
vn 0.003242 0.999979 0.005615
vn 0.004584 0.999979 0.004585
vn -0.028799 0.999170 -0.028800
vn 0.003242 0.999979 0.005615
vn 0.487198 -0.224838 0.843852
vn 0.689004 -0.224834 0.689002
vn 0.004584 0.999979 0.004585
vn -0.028799 0.999170 -0.028800
vn 0.004584 0.999979 0.004585
vn 0.005615 0.999979 0.003241
vn -0.035271 0.999170 -0.020364
vn 0.004584 0.999979 0.004585
vn 0.689004 -0.224834 0.689002
vn 0.843856 -0.224824 0.487197
vn 0.005615 0.999979 0.003241
vn -0.035271 0.999170 -0.020364
vn 0.005615 0.999979 0.003241
vn 0.006261 0.999979 0.001677
vn -0.039341 0.999170 -0.010542
vn 0.005615 0.999979 0.003241
vn 0.843856 -0.224824 0.487197
vn 0.941196 -0.224833 0.252191
vn 0.006261 0.999979 0.001677
vn -0.039341 0.999170 -0.010542
vn 0.006261 0.999979 0.001677
vn 0.006484 0.999979 -0.000000
vn -0.040727 0.999170 0.000000
vn 0.006261 0.999979 0.001677
vn 0.941196 -0.224833 0.252191
vn 0.974394 -0.224847 -0.000001
vn 0.006484 0.999979 -0.000000
vn 0.942720 0.217880 -0.252601
vn -0.026831 -0.999614 0.007189
vn -0.022323 -0.999668 0.012888
vn 0.845221 0.217876 -0.487987
vn -0.026831 -0.999614 0.007189
vn 0.942720 0.217880 -0.252601
vn 0.975975 0.217884 -0.000001
vn -0.025776 -0.999668 -0.000000
vn 0.845221 0.217876 -0.487987
vn -0.022323 -0.999668 0.012888
vn -0.019641 -0.999614 0.019641
vn 0.690118 0.217882 -0.690119
vn 0.690118 0.217882 -0.690119
vn -0.019641 -0.999614 0.019641
vn -0.012888 -0.999668 0.022323
vn 0.487987 0.217885 -0.845219
vn 0.487987 0.217885 -0.845219
vn -0.012888 -0.999668 0.022323
vn -0.007189 -0.999614 0.026831
vn 0.252601 0.217884 -0.942719
vn 0.252601 0.217884 -0.942719
vn -0.007189 -0.999614 0.026831
vn 0.000000 -0.999668 0.025777
vn 0.000001 0.217883 -0.975975
vn 0.000001 0.217883 -0.975975
vn 0.000000 -0.999668 0.025777
vn 0.007190 -0.999614 0.026831
vn -0.252602 0.217884 -0.942719
vn -0.252602 0.217884 -0.942719
vn 0.007190 -0.999614 0.026831
vn 0.012888 -0.999668 0.022323
vn -0.487986 0.217886 -0.845219
vn -0.487986 0.217886 -0.845219
vn 0.012888 -0.999668 0.022323
vn 0.019641 -0.999614 0.019641
vn -0.690118 0.217883 -0.690119
vn -0.690118 0.217883 -0.690119
vn 0.019641 -0.999614 0.019641
vn 0.022323 -0.999668 0.012888
vn -0.845220 0.217881 -0.487986
vn -0.845220 0.217881 -0.487986
vn 0.022323 -0.999668 0.012888
vn 0.026831 -0.999614 0.007189
vn -0.942719 0.217887 -0.252600
vn -0.942719 0.217887 -0.252600
vn 0.026831 -0.999614 0.007189
vn 0.025777 -0.999668 0.000000
vn -0.975973 0.217891 0.000000
vn -0.975973 0.217891 0.000000
vn 0.025777 -0.999668 0.000000
vn 0.026831 -0.999614 -0.007189
vn -0.942719 0.217887 0.252600
vn -0.942719 0.217887 0.252600
vn 0.026831 -0.999614 -0.007189
vn 0.022323 -0.999668 -0.012888
vn -0.845221 0.217881 0.487986
vn -0.845221 0.217881 0.487986
vn 0.022323 -0.999668 -0.012888
vn 0.019641 -0.999614 -0.019641
vn -0.690119 0.217881 0.690118
vn -0.690119 0.217881 0.690118
vn 0.019641 -0.999614 -0.019641
vn 0.012888 -0.999668 -0.022323
vn -0.487988 0.217883 0.845219
vn -0.487988 0.217883 0.845219
vn 0.012888 -0.999668 -0.022323
vn 0.007189 -0.999614 -0.026831
vn -0.252601 0.217882 0.942720
vn -0.252601 0.217882 0.942720
vn 0.007189 -0.999614 -0.026831
vn 0.000000 -0.999668 -0.025777
vn -0.000000 0.217883 0.975975
vn -0.000000 0.217883 0.975975
vn 0.000000 -0.999668 -0.025777
vn -0.007189 -0.999614 -0.026830
vn 0.252600 0.217883 0.942720
vn 0.252600 0.217883 0.942720
vn -0.007189 -0.999614 -0.026830
vn -0.012888 -0.999668 -0.022323
vn 0.487988 0.217884 0.845218
vn 0.487988 0.217884 0.845218
vn -0.012888 -0.999668 -0.022323
vn -0.019641 -0.999614 -0.019641
vn 0.690118 0.217881 0.690119
vn 0.690118 0.217881 0.690119
vn -0.019641 -0.999614 -0.019641
vn -0.022323 -0.999668 -0.012888
vn 0.845221 0.217876 0.487987
vn 0.845221 0.217876 0.487987
vn -0.022323 -0.999668 -0.012888
vn -0.026830 -0.999614 -0.007189
vn 0.942721 0.217878 0.252600
vn 0.942721 0.217878 0.252600
vn -0.026830 -0.999614 -0.007189
vn -0.025776 -0.999668 -0.000000
vn 0.975975 0.217884 -0.000001
vn 0.942720 0.217880 -0.252601
vn 0.845221 0.217876 -0.487987
vn 0.664316 0.641544 -0.383543
vn 0.740948 0.641544 -0.198536
vn 0.843855 -0.224828 -0.487197
vn 0.941194 -0.224838 -0.252193
vn 0.691009 -0.698730 -0.185154
vn 0.619543 -0.698730 -0.357690
vn 0.845221 0.217876 -0.487987
vn 0.690118 0.217882 -0.690119
vn 0.542409 0.641547 -0.542411
vn 0.664316 0.641544 -0.383543
vn 0.689003 -0.224835 -0.689002
vn 0.843855 -0.224828 -0.487197
vn 0.619543 -0.698730 -0.357690
vn 0.505853 -0.698732 -0.505853
vn 0.690118 0.217882 -0.690119
vn 0.487987 0.217885 -0.845219
vn 0.383542 0.641548 -0.664313
vn 0.542409 0.641547 -0.542411
vn 0.487198 -0.224839 -0.843852
vn 0.689003 -0.224835 -0.689002
vn 0.505853 -0.698732 -0.505853
vn 0.357692 -0.698731 -0.619541
vn 0.487987 0.217885 -0.845219
vn 0.252601 0.217884 -0.942719
vn 0.198537 0.641548 -0.740945
vn 0.383542 0.641548 -0.664313
vn 0.252192 -0.224837 -0.941195
vn 0.487198 -0.224839 -0.843852
vn 0.357692 -0.698731 -0.619541
vn 0.185156 -0.698733 -0.691006
vn 0.252601 0.217884 -0.942719
vn 0.000001 0.217883 -0.975975
vn 0.000000 0.641547 -0.767084
vn 0.198537 0.641548 -0.740945
vn 0.000001 -0.224837 -0.974397
vn 0.252192 -0.224837 -0.941195
vn 0.185156 -0.698733 -0.691006
vn 0.000001 -0.698733 -0.715383
vn 0.000001 0.217883 -0.975975
vn -0.252602 0.217884 -0.942719
vn -0.198536 0.641547 -0.740946
vn 0.000000 0.641547 -0.767084
vn -0.252194 -0.224836 -0.941195
vn 0.000001 -0.224837 -0.974397
vn 0.000001 -0.698733 -0.715383
vn -0.185154 -0.698731 -0.691008
vn -0.252602 0.217884 -0.942719
vn -0.487986 0.217886 -0.845219
vn -0.383541 0.641548 -0.664313
vn -0.198536 0.641547 -0.740946
vn -0.487196 -0.224838 -0.843853
vn -0.252194 -0.224836 -0.941195
vn -0.185154 -0.698731 -0.691008
vn -0.357691 -0.698731 -0.619541
vn -0.487986 0.217886 -0.845219
vn -0.690118 0.217883 -0.690119
vn -0.542409 0.641548 -0.542411
vn -0.383541 0.641548 -0.664313
vn -0.689001 -0.224836 -0.689004
vn -0.487196 -0.224838 -0.843853
vn -0.357691 -0.698731 -0.619541
vn -0.505852 -0.698731 -0.505855
vn -0.690118 0.217883 -0.690119
vn -0.845220 0.217881 -0.487986
vn -0.664313 0.641550 -0.383540
vn -0.542409 0.641548 -0.542411
vn -0.843854 -0.224835 -0.487196
vn -0.689001 -0.224836 -0.689004
vn -0.505852 -0.698731 -0.505855
vn -0.619540 -0.698733 -0.357690
vn -0.845220 0.217881 -0.487986
vn -0.942719 0.217887 -0.252600
vn -0.740942 0.641552 -0.198534
vn -0.664313 0.641550 -0.383540
vn -0.941194 -0.224841 -0.252191
vn -0.843854 -0.224835 -0.487196
vn -0.619540 -0.698733 -0.357690
vn -0.691005 -0.698735 -0.185152
vn -0.942719 0.217887 -0.252600
vn -0.975973 0.217891 0.000000
vn -0.767079 0.641552 0.000000
vn -0.740942 0.641552 -0.198534
vn -0.974394 -0.224848 0.000000
vn -0.941194 -0.224841 -0.252191
vn -0.691005 -0.698735 -0.185152
vn -0.715380 -0.698736 0.000000
vn -0.975973 0.217891 0.000000
vn -0.942719 0.217887 0.252600
vn -0.740943 0.641551 0.198534
vn -0.767079 0.641552 0.000000
vn -0.941194 -0.224841 0.252191
vn -0.974394 -0.224848 0.000000
vn -0.715380 -0.698736 0.000000
vn -0.691005 -0.698735 0.185153
vn -0.942719 0.217887 0.252600
vn -0.845221 0.217881 0.487986
vn -0.664313 0.641549 0.383540
vn -0.740943 0.641551 0.198534
vn -0.843855 -0.224832 0.487195
vn -0.941194 -0.224841 0.252191
vn -0.691005 -0.698735 0.185153
vn -0.619541 -0.698733 0.357689
vn -0.845221 0.217881 0.487986
vn -0.690119 0.217881 0.690118
vn -0.542410 0.641548 0.542409
vn -0.664313 0.641549 0.383540
vn -0.689005 -0.224831 0.689002
vn -0.843855 -0.224832 0.487195
vn -0.619541 -0.698733 0.357689
vn -0.505854 -0.698732 0.505851
vn -0.690119 0.217881 0.690118
vn -0.487988 0.217883 0.845219
vn -0.383541 0.641549 0.664313
vn -0.542410 0.641548 0.542409
vn -0.487200 -0.224833 0.843852
vn -0.689005 -0.224831 0.689002
vn -0.505854 -0.698732 0.505851
vn -0.357691 -0.698733 0.619540
vn -0.487988 0.217883 0.845219
vn -0.252601 0.217882 0.942720
vn -0.198535 0.641548 0.740945
vn -0.383541 0.641549 0.664313
vn -0.252192 -0.224835 0.941195
vn -0.487200 -0.224833 0.843852
vn -0.357691 -0.698733 0.619540
vn -0.185153 -0.698733 0.691007
vn -0.252601 0.217882 0.942720
vn -0.000000 0.217883 0.975975
vn -0.000000 0.641548 0.767083
vn -0.198535 0.641548 0.740945
vn -0.000000 -0.224838 0.974396
vn -0.252192 -0.224835 0.941195
vn -0.185153 -0.698733 0.691007
vn -0.000000 -0.698734 0.715382
vn -0.000000 0.217883 0.975975
vn 0.252600 0.217883 0.942720
vn 0.198535 0.641549 0.740945
vn -0.000000 0.641548 0.767083
vn 0.252191 -0.224837 0.941195
vn -0.000000 -0.224838 0.974396
vn -0.000000 -0.698734 0.715382
vn 0.185155 -0.698733 0.691006
vn 0.252600 0.217883 0.942720
vn 0.487988 0.217884 0.845218
vn 0.383543 0.641548 0.664313
vn 0.198535 0.641549 0.740945
vn 0.487198 -0.224838 0.843852
vn 0.252191 -0.224837 0.941195
vn 0.185155 -0.698733 0.691006
vn 0.357693 -0.698732 0.619540
vn 0.487988 0.217884 0.845218
vn 0.690118 0.217881 0.690119
vn 0.542410 0.641546 0.542412
vn 0.383543 0.641548 0.664313
vn 0.689004 -0.224834 0.689002
vn 0.487198 -0.224838 0.843852
vn 0.357693 -0.698732 0.619540
vn 0.505853 -0.698730 0.505855
vn 0.690118 0.217881 0.690119
vn 0.845221 0.217876 0.487987
vn 0.664317 0.641544 0.383543
vn 0.542410 0.641546 0.542412
vn 0.843856 -0.224824 0.487197
vn 0.689004 -0.224834 0.689002
vn 0.505853 -0.698730 0.505855
vn 0.619543 -0.698729 0.357693
vn 0.845221 0.217876 0.487987
vn 0.942721 0.217878 0.252600
vn 0.740950 0.641543 0.198535
vn 0.664317 0.641544 0.383543
vn 0.941196 -0.224833 0.252191
vn 0.843856 -0.224824 0.487197
vn 0.619543 -0.698729 0.357693
vn 0.691011 -0.698729 0.185153
vn 0.942721 0.217878 0.252600
vn 0.975975 0.217884 -0.000001
vn 0.767086 0.641545 -0.000001
vn 0.740950 0.641543 0.198535
vn 0.974394 -0.224847 -0.000001
vn 0.941196 -0.224833 0.252191
vn 0.691011 -0.698729 0.185153
vn 0.715385 -0.698731 -0.000000
vn 0.975975 0.217884 -0.000001
vn 0.942720 0.217880 -0.252601
vn 0.740948 0.641544 -0.198536
vn 0.767086 0.641545 -0.000001
vn 0.941194 -0.224838 -0.252193
vn 0.974394 -0.224847 -0.000001
vn 0.715385 -0.698731 -0.000000
vn 0.691009 -0.698730 -0.185154
vn 0.866026 0.000000 -0.499999
vn 0.500002 0.000000 -0.866024
vn 0.259640 0.854604 -0.449710
vn 0.449710 0.854604 -0.259641
vn 0.500002 0.000000 -0.866024
vn 0.000000 0.000000 -1.000000
vn 0.000000 0.854603 -0.519281
vn 0.259640 0.854604 -0.449710
vn 0.000000 0.000000 -1.000000
vn -0.500000 0.000000 -0.866025
vn -0.259640 0.854604 -0.449709
vn 0.000000 0.854603 -0.519281
vn -0.500000 0.000000 -0.866025
vn -0.866026 0.000000 -0.499999
vn -0.449710 0.854604 -0.259640
vn -0.259640 0.854604 -0.449709
vn -0.866026 0.000000 -0.499999
vn -1.000000 0.000000 0.000000
vn -0.519280 0.854604 0.000000
vn -0.449710 0.854604 -0.259640
vn -1.000000 0.000000 0.000000
vn -0.866026 0.000000 0.499999
vn -0.449711 0.854604 0.259638
vn -0.519280 0.854604 0.000000
vn -0.866026 0.000000 0.499999
vn -0.500000 0.000000 0.866025
vn -0.259641 0.854605 0.449708
vn -0.449711 0.854604 0.259638
vn -0.500000 0.000000 0.866025
vn -0.000000 0.000000 1.000000
vn -0.000000 0.854605 0.519279
vn -0.259641 0.854605 0.449708
vn -0.000000 0.000000 1.000000
vn 0.500002 0.000000 0.866024
vn 0.259641 0.854604 0.449709
vn -0.000000 0.854605 0.519279
vn 0.500002 0.000000 0.866024
vn 0.866026 0.000000 0.499999
vn 0.449710 0.854604 0.259639
vn 0.259641 0.854604 0.449709
vn 0.866026 0.000000 0.499999
vn 1.000000 0.000000 0.000000
vn 0.519279 0.854605 0.000000
vn 0.449710 0.854604 0.259639
vn 1.000000 0.000000 0.000000
vn 0.866026 0.000000 -0.499999
vn 0.449710 0.854604 -0.259641
vn 0.519279 0.854605 0.000000
vn 0.000000 1.000000 -0.000001
vn 0.449710 0.854604 -0.259641
vn 0.259640 0.854604 -0.449710
vn 0.000000 0.854603 -0.519281
vn 0.000000 1.000000 -0.000001
vn 0.000000 0.854603 -0.519281
vn -0.259640 0.854604 -0.449709
vn -0.449710 0.854604 -0.259640
vn 0.000000 1.000000 -0.000001
vn -0.449710 0.854604 -0.259640
vn -0.519280 0.854604 0.000000
vn -0.449711 0.854604 0.259638
vn 0.000000 1.000000 -0.000001
vn -0.449711 0.854604 0.259638
vn -0.259641 0.854605 0.449708
vn -0.000000 0.854605 0.519279
vn 0.000000 1.000000 -0.000001
vn -0.000000 0.854605 0.519279
vn 0.259641 0.854604 0.449709
vn 0.449710 0.854604 0.259639
vn 0.000000 1.000000 -0.000001
vn 0.449710 0.854604 0.259639
vn 0.519279 0.854605 0.000000
vn 0.449710 0.854604 -0.259641
vn 0.939693 0.000000 -0.342019
vn 0.766045 0.000000 -0.642787
vn 0.284202 0.928632 -0.238477
vn 0.340052 0.932226 -0.123774
vn 0.766045 0.000000 -0.642787
vn 0.500001 0.000000 -0.866025
vn 0.180938 0.932226 -0.313394
vn 0.284202 0.928632 -0.238477
vn 0.500001 0.000000 -0.866025
vn 0.173649 0.000000 -0.984808
vn 0.064424 0.928633 -0.365364
vn 0.180938 0.932226 -0.313394
vn 0.173649 0.000000 -0.984808
vn -0.173648 0.000000 -0.984808
vn -0.062839 0.932226 -0.356379
vn 0.064424 0.928633 -0.365364
vn -0.173648 0.000000 -0.984808
vn -0.500000 0.000000 -0.866025
vn -0.185500 0.928632 -0.321298
vn -0.062839 0.932226 -0.356379
vn -0.500000 0.000000 -0.866025
vn -0.766045 0.000000 -0.642787
vn -0.277214 0.932225 -0.232615
vn -0.185500 0.928632 -0.321298
vn -0.766045 0.000000 -0.642787
vn -0.939692 0.000000 -0.342022
vn -0.348624 0.928633 -0.126893
vn -0.277214 0.932225 -0.232615
vn -0.939692 0.000000 -0.342022
vn -1.000000 0.000000 0.000000
vn -0.361878 0.932226 0.000000
vn -0.348624 0.928633 -0.126893
vn -1.000000 0.000000 0.000000
vn -0.939692 0.000000 0.342021
vn -0.348625 0.928633 0.126891
vn -0.361878 0.932226 0.000000
vn -0.939692 0.000000 0.342021
vn -0.766045 0.000000 0.642787
vn -0.277214 0.932225 0.232612
vn -0.348625 0.928633 0.126891
vn -0.766045 0.000000 0.642787
vn -0.500000 0.000000 0.866025
vn -0.185500 0.928632 0.321297
vn -0.277214 0.932225 0.232612
vn -0.500000 0.000000 0.866025
vn -0.173649 0.000000 0.984808
vn -0.062839 0.932226 0.356379
vn -0.185500 0.928632 0.321297
vn -0.173649 0.000000 0.984808
vn 0.173648 0.000000 0.984808
vn 0.064423 0.928633 0.365363
vn -0.062839 0.932226 0.356379
vn 0.173648 0.000000 0.984808
vn 0.500000 0.000000 0.866026
vn 0.180938 0.932226 0.313394
vn 0.064423 0.928633 0.365363
vn 0.500000 0.000000 0.866026
vn 0.766045 0.000000 0.642787
vn 0.284202 0.928633 0.238476
vn 0.180938 0.932226 0.313394
vn 0.766045 0.000000 0.642787
vn 0.939693 0.000000 0.342020
vn 0.340053 0.932225 0.123774
vn 0.284202 0.928633 0.238476
vn 0.939693 0.000000 0.342020
vn 1.000000 0.000000 0.000000
vn 0.370999 0.928633 0.000000
vn 0.340053 0.932225 0.123774
vn 1.000000 0.000000 0.000000
vn 0.939693 0.000000 -0.342019
vn 0.340052 0.932226 -0.123774
vn 0.370999 0.928633 0.000000
vn 0.000000 1.000000 -0.000000
vn 0.284202 0.928632 -0.238477
vn 0.180938 0.932226 -0.313394
vn 0.064424 0.928633 -0.365364
vn 0.000000 1.000000 -0.000000
vn 0.064424 0.928633 -0.365364
vn -0.062839 0.932226 -0.356379
vn -0.185500 0.928632 -0.321298
vn 0.000000 1.000000 -0.000000
vn -0.185500 0.928632 -0.321298
vn -0.277214 0.932225 -0.232615
vn -0.348624 0.928633 -0.126893
vn 0.000000 1.000000 -0.000000
vn -0.348624 0.928633 -0.126893
vn -0.361878 0.932226 0.000000
vn -0.348625 0.928633 0.126891
vn 0.000000 1.000000 -0.000000
vn -0.348625 0.928633 0.126891
vn -0.277214 0.932225 0.232612
vn -0.185500 0.928632 0.321297
vn 0.000000 1.000000 -0.000000
vn -0.185500 0.928632 0.321297
vn -0.062839 0.932226 0.356379
vn 0.064423 0.928633 0.365363
vn 0.000000 1.000000 -0.000000
vn 0.064423 0.928633 0.365363
vn 0.180938 0.932226 0.313394
vn 0.284202 0.928633 0.238476
vn 0.000000 1.000000 -0.000000
vn 0.284202 0.928633 0.238476
vn 0.340053 0.932225 0.123774
vn 0.370999 0.928633 0.000000
vn 0.000000 1.000000 -0.000000
vn 0.370999 0.928633 0.000000
vn 0.340052 0.932226 -0.123774
vn 0.284202 0.928632 -0.238477
s off
g OilDrumGrey
usemtl OilDrumGreySG
f 123/1/1 124/2/2 125/3/3 126/4/4
f 124/2/5 127/5/6 128/6/7 125/3/8
f 127/5/9 129/7/10 130/8/11 128/6/12
f 129/7/13 131/9/14 132/10/15 130/8/16
f 131/9/17 133/11/18 134/12/19 132/10/20
f 133/11/21 135/13/22 136/14/23 134/12/24
f 135/13/25 137/15/26 138/16/27 136/14/28
f 137/15/29 139/17/30 140/18/31 138/16/32
f 139/17/33 141/19/34 142/20/35 140/18/36
f 141/19/37 143/21/38 144/22/39 142/20/40
f 143/21/41 145/23/42 146/24/43 144/22/44
f 145/23/45 147/25/46 148/26/47 146/24/48
f 147/25/49 149/27/50 150/28/51 148/26/52
f 149/27/53 151/29/54 152/30/55 150/28/56
f 151/29/57 153/31/58 154/32/59 152/30/60
f 153/31/61 155/33/62 156/34/63 154/32/64
f 155/33/65 157/35/66 158/36/67 156/34/68
f 157/35/69 159/37/70 160/38/71 158/36/72
f 159/37/73 161/39/74 162/40/75 160/38/76
f 161/39/77 163/41/78 164/42/79 162/40/80
f 163/41/81 165/43/82 166/44/83 164/42/84
f 165/43/85 167/45/86 168/46/87 166/44/88
f 167/45/89 169/47/90 170/48/91 168/46/92
f 169/47/93 123/49/94 126/50/95 170/48/96
f 1/51/97 77/52/98 75/53/99 121/54/100
f 1/51/101 81/55/102 79/56/103 77/52/104
f 1/51/105 85/57/106 83/58/107 81/55/108
f 1/51/109 89/59/110 87/60/111 85/57/112
f 1/51/113 93/61/114 91/62/115 89/59/116
f 1/51/117 97/63/118 95/64/119 93/61/120
f 1/51/121 101/65/122 99/66/123 97/63/124
f 1/51/125 105/67/126 103/68/127 101/65/128
f 1/51/129 109/69/130 107/70/131 105/67/132
f 1/51/133 113/71/134 111/72/135 109/69/136
f 1/51/137 117/73/138 115/74/139 113/71/140
f 1/51/141 121/54/142 119/75/143 117/73/144
f 2/76/145 6/77/146 9/78/147 12/79/148
f 2/76/149 12/79/150 15/80/151 18/81/152
f 2/76/153 18/81/154 21/82/155 24/83/156
f 2/76/157 24/83/158 27/84/159 30/85/160
f 2/76/161 30/85/162 33/86/163 36/87/164
f 2/76/165 36/87/166 39/88/167 42/89/168
f 2/76/169 42/89/170 45/90/171 48/91/172
f 2/76/173 48/91/174 51/92/175 54/93/176
f 2/76/177 54/93/178 57/94/179 60/95/180
f 2/76/181 60/95/182 63/96/183 66/97/184
f 2/76/185 66/97/186 69/98/187 72/99/188
f 2/76/189 72/99/190 3/100/191 6/77/192
f 5/101/193 4/102/194 73/103/195 74/104/196
f 4/105/197 3/100/198 72/99/199 73/106/200
f 3/100/201 4/105/202 7/107/203 6/77/204
f 4/102/205 5/101/206 8/108/207 7/109/208
f 6/77/209 7/107/210 10/110/211 9/78/212
f 7/109/213 8/108/214 11/111/215 10/112/216
f 9/78/217 10/110/218 13/113/219 12/79/220
f 10/112/221 11/111/222 14/114/223 13/115/224
f 12/79/225 13/113/226 16/116/227 15/80/228
f 13/115/229 14/114/230 17/117/231 16/118/232
f 15/80/233 16/116/234 19/119/235 18/81/236
f 16/118/237 17/117/238 20/120/239 19/121/240
f 18/81/241 19/119/242 22/122/243 21/82/244
f 19/123/245 20/124/246 23/125/247 22/126/248
f 21/82/249 22/122/250 25/127/251 24/83/252
f 22/126/253 23/125/254 26/128/255 25/129/256
f 24/83/257 25/127/258 28/130/259 27/84/260
f 25/129/261 26/128/262 29/131/263 28/132/264
f 27/84/265 28/130/266 31/133/267 30/85/268
f 28/132/269 29/131/270 32/134/271 31/135/272
f 30/85/273 31/133/274 34/136/275 33/86/276
f 31/135/277 32/134/278 35/137/279 34/138/280
f 33/86/281 34/136/282 37/139/283 36/87/284
f 34/138/285 35/137/286 38/140/287 37/141/288
f 36/87/289 37/139/290 40/142/291 39/88/292
f 37/141/293 38/140/294 41/143/295 40/144/296
f 39/88/297 40/142/298 43/145/299 42/89/300
f 40/144/301 41/143/302 44/146/303 43/147/304
f 42/89/305 43/145/306 46/148/307 45/90/308
f 43/147/309 44/146/310 47/149/311 46/150/312
f 45/90/313 46/148/314 49/151/315 48/91/316
f 46/150/317 47/149/318 50/152/319 49/153/320
f 48/91/321 49/151/322 52/154/323 51/92/324
f 49/153/325 50/152/326 53/155/327 52/156/328
f 51/92/329 52/154/330 55/157/331 54/93/332
f 52/156/333 53/155/334 56/158/335 55/159/336
f 54/93/337 55/157/338 58/160/339 57/94/340
f 55/159/341 56/158/342 59/161/343 58/162/344
f 57/94/345 58/160/346 61/163/347 60/95/348
f 58/162/349 59/161/350 62/164/351 61/165/352
f 60/95/353 61/163/354 64/166/355 63/96/356
f 61/165/357 62/164/358 65/167/359 64/168/360
f 63/96/361 64/166/362 67/169/363 66/97/364
f 64/168/365 65/167/366 68/170/367 67/171/368
f 66/97/369 67/169/370 70/172/371 69/98/372
f 67/171/373 68/170/374 71/173/375 70/174/376
f 69/98/377 70/172/378 73/106/379 72/99/380
f 70/174/381 71/173/382 74/104/383 73/103/384
f 76/175/385 75/176/386 77/177/387 78/178/388
f 75/176/389 76/175/390 122/179/391 121/180/392
f 78/178/393 77/177/394 79/181/395 80/182/396
f 80/182/397 79/181/398 81/183/399 82/184/400
f 82/184/401 81/183/402 83/185/403 84/186/404
f 84/186/405 83/185/406 85/187/407 86/188/408
f 86/189/409 85/190/410 87/191/411 88/192/412
f 88/192/413 87/191/414 89/193/415 90/194/416
f 90/194/417 89/193/418 91/195/419 92/196/420
f 92/196/421 91/195/422 93/197/423 94/198/424
f 94/198/425 93/197/426 95/199/427 96/200/428
f 96/200/429 95/199/430 97/201/431 98/202/432
f 98/202/433 97/201/434 99/203/435 100/204/436
f 100/204/437 99/203/438 101/205/439 102/206/440
f 102/206/441 101/205/442 103/207/443 104/208/444
f 104/208/445 103/207/446 105/209/447 106/210/448
f 106/210/449 105/209/450 107/211/451 108/212/452
f 108/212/453 107/211/454 109/213/455 110/214/456
f 110/214/457 109/213/458 111/215/459 112/216/460
f 112/216/461 111/215/462 113/217/463 114/218/464
f 114/218/465 113/217/466 115/219/467 116/220/468
f 116/220/469 115/219/470 117/221/471 118/222/472
f 118/222/473 117/221/474 119/223/475 120/224/476
f 120/224/477 119/223/478 121/180/479 122/179/480
f 76/225/481 78/226/482 124/227/483 123/228/484
f 8/229/485 5/230/486 126/231/487 125/232/488
f 78/226/489 80/233/490 127/234/491 124/227/492
f 11/235/493 8/229/494 125/232/495 128/236/496
f 80/233/497 82/237/498 129/238/499 127/234/500
f 14/239/501 11/235/502 128/236/503 130/240/504
f 82/237/505 84/241/506 131/242/507 129/238/508
f 17/243/509 14/239/510 130/240/511 132/244/512
f 84/241/513 86/245/514 133/246/515 131/242/516
f 20/247/517 17/243/518 132/244/519 134/248/520
f 86/249/521 88/250/522 135/251/523 133/252/524
f 23/253/525 20/254/526 134/255/527 136/256/528
f 88/250/529 90/257/530 137/258/531 135/251/532
f 26/259/533 23/253/534 136/256/535 138/260/536
f 90/257/537 92/261/538 139/262/539 137/258/540
f 29/263/541 26/259/542 138/260/543 140/264/544
f 92/261/545 94/265/546 141/266/547 139/262/548
f 32/267/549 29/263/550 140/264/551 142/268/552
f 94/265/553 96/269/554 143/270/555 141/266/556
f 35/271/557 32/267/558 142/268/559 144/272/560
f 96/269/561 98/273/562 145/274/563 143/270/564
f 38/275/565 35/271/566 144/272/567 146/276/568
f 98/273/569 100/277/570 147/278/571 145/274/572
f 41/279/573 38/275/574 146/276/575 148/280/576
f 100/277/577 102/281/578 149/282/579 147/278/580
f 44/283/581 41/279/582 148/280/583 150/284/584
f 102/281/585 104/285/586 151/286/587 149/282/588
f 47/287/589 44/283/590 150/284/591 152/288/592
f 104/285/593 106/289/594 153/290/595 151/286/596
f 50/291/597 47/287/598 152/288/599 154/292/600
f 106/289/601 108/293/602 155/294/603 153/290/604
f 53/295/605 50/291/606 154/292/607 156/296/608
f 108/293/609 110/297/610 157/298/611 155/294/612
f 56/299/613 53/295/614 156/296/615 158/300/616
f 110/297/617 112/301/618 159/302/619 157/298/620
f 59/303/621 56/299/622 158/300/623 160/304/624
f 112/301/625 114/305/626 161/306/627 159/302/628
f 62/307/629 59/303/630 160/304/631 162/308/632
f 114/305/633 116/309/634 163/310/635 161/306/636
f 65/311/637 62/307/638 162/308/639 164/312/640
f 116/309/641 118/313/642 165/314/643 163/310/644
f 68/315/645 65/311/646 164/312/647 166/316/648
f 118/313/649 120/317/650 167/318/651 165/314/652
f 71/319/653 68/315/654 166/316/655 168/320/656
f 120/317/657 122/321/658 169/322/659 167/318/660
f 74/323/661 71/319/662 168/320/663 170/324/664
f 122/321/665 76/225/666 123/228/667 169/322/668
f 5/230/669 74/323/670 170/324/671 126/231/672
f 171/325/673 172/326/674 184/327/675 183/328/676
f 172/326/677 173/329/678 185/330/679 184/327/680
f 173/329/681 174/331/682 186/332/683 185/330/684
f 174/331/685 175/333/686 187/334/687 186/332/688
f 175/333/689 176/335/690 188/336/691 187/334/692
f 176/335/693 177/337/694 189/338/695 188/336/696
f 177/337/697 178/339/698 190/340/699 189/338/700
f 178/339/701 179/341/702 191/342/703 190/340/704
f 179/341/705 180/343/706 192/344/707 191/342/708
f 180/343/709 181/345/710 193/346/711 192/344/712
f 181/345/713 182/347/714 194/348/715 193/346/716
f 182/347/717 171/349/718 183/350/719 194/348/720
f 195/351/721 183/352/722 184/353/723 185/354/724
f 195/351/725 185/354/726 186/355/727 187/356/728
f 195/351/729 187/356/730 188/357/731 189/358/732
f 195/351/733 189/358/734 190/359/735 191/360/736
f 195/351/737 191/360/738 192/361/739 193/362/740
f 195/351/741 193/362/742 194/363/743 183/352/744
f 196/364/745 197/365/746 215/366/747 214/367/748
f 197/365/749 198/368/750 216/369/751 215/366/752
f 198/368/753 199/370/754 217/371/755 216/369/756
f 199/370/757 200/372/758 218/373/759 217/371/760
f 200/372/761 201/374/762 219/375/763 218/373/764
f 201/374/765 202/376/766 220/377/767 219/375/768
f 202/376/769 203/378/770 221/379/771 220/377/772
f 203/378/773 204/380/774 222/381/775 221/379/776
f 204/380/777 205/382/778 223/383/779 222/381/780
f 205/382/781 206/384/782 224/385/783 223/383/784
f 206/384/785 207/386/786 225/387/787 224/385/788
f 207/386/789 208/388/790 226/389/791 225/387/792
f 208/388/793 209/390/794 227/391/795 226/389/796
f 209/390/797 210/392/798 228/393/799 227/391/800
f 210/392/801 211/394/802 229/395/803 228/393/804
f 211/394/805 212/396/806 230/397/807 229/395/808
f 212/396/809 213/398/810 231/399/811 230/397/812
f 213/398/813 196/400/814 214/401/815 231/399/816
f 232/402/817 215/403/818 216/404/819 217/405/820
f 232/402/821 217/405/822 218/406/823 219/407/824
f 232/402/825 219/407/826 220/408/827 221/409/828
f 232/402/829 221/409/830 222/410/831 223/411/832
f 232/402/833 223/411/834 224/412/835 225/413/836
f 232/402/837 225/413/838 226/414/839 227/415/840
f 232/402/841 227/415/842 228/416/843 229/417/844
f 232/402/845 229/417/846 230/418/847 231/419/848
f 232/402/849 231/419/850 214/420/851 215/403/852
